<?xml version="1.0" standalone="no"?>
<!DOCTYPE svg PUBLIC "-//W3C//DTD SVG 20010904//EN"
 "http://www.w3.org/TR/2001/REC-SVG-20010904/DTD/svg10.dtd">
<svg version="1.0" xmlns="http://www.w3.org/2000/svg"
 width="850.000000pt" height="879.000000pt" viewBox="0 0 850.000000 879.000000"
 preserveAspectRatio="xMidYMid meet">

<g transform="translate(0.000000,879.000000) scale(0.100000,-0.100000)"
fill="#000000" stroke="none">
<path d="M3858 8769 c-80 -4 -159 -10 -175 -14 -15 -4 -56 -8 -90 -10 -34 -2
-65 -5 -70 -8 -5 -3 -36 -9 -69 -12 -32 -4 -63 -9 -68 -12 -15 -10 -80 -23
-141 -29 -33 -3 -80 -12 -105 -19 -118 -36 -189 -55 -202 -55 -7 0 -35 -11
-63 -25 -27 -13 -64 -25 -80 -25 -17 0 -41 -7 -53 -16 -12 -8 -22 -12 -22 -9
0 4 -16 -2 -36 -14 -19 -12 -46 -21 -59 -21 -13 0 -27 -4 -30 -10 -3 -5 -16
-10 -28 -10 -12 0 -40 -12 -62 -25 -22 -14 -46 -25 -54 -25 -14 0 -84 -32
-266 -121 -44 -22 -83 -39 -87 -39 -11 0 -130 -72 -161 -97 -16 -13 -34 -23
-41 -23 -19 0 -286 -162 -322 -195 -13 -12 -128 -106 -187 -153 -23 -18 -57
-45 -76 -60 -66 -53 -271 -254 -448 -439 -61 -64 -113 -130 -113 -142 0 -6 -6
-11 -14 -11 -8 0 -17 -8 -21 -19 -3 -10 -20 -34 -38 -53 -67 -72 -97 -109 -97
-119 0 -5 -13 -24 -29 -41 -17 -18 -36 -43 -43 -57 -7 -15 -27 -45 -45 -68
-17 -24 -35 -53 -39 -65 -4 -13 -21 -41 -39 -63 -18 -22 -35 -52 -39 -67 -3
-16 -29 -62 -56 -104 -28 -42 -50 -86 -50 -99 0 -12 -11 -32 -25 -45 -14 -13
-25 -30 -25 -37 0 -8 -9 -31 -20 -53 -11 -22 -20 -47 -20 -57 0 -9 -18 -47
-40 -84 -22 -38 -43 -83 -46 -101 -4 -18 -13 -44 -22 -58 -24 -38 -41 -181
-41 -340 l-1 -145 20 44 c11 24 20 57 20 73 0 17 7 51 15 77 8 25 24 78 36
118 12 40 27 80 35 90 7 10 14 28 14 40 0 21 7 40 66 168 12 28 26 64 29 80 4
17 32 77 63 135 30 58 72 139 94 180 21 41 43 82 48 90 5 8 25 43 45 77 21 34
46 70 56 79 10 9 19 22 19 29 0 7 11 25 25 41 14 16 25 37 25 46 0 9 8 23 19
30 19 13 70 78 105 133 11 17 36 46 57 65 20 20 44 50 53 67 9 18 22 36 30 40
7 4 50 51 96 103 45 52 92 103 104 113 74 63 196 183 196 192 0 6 16 19 35 28
19 9 35 22 35 28 0 13 40 48 56 49 6 0 19 10 30 21 10 12 35 32 54 44 19 12
62 45 95 73 33 29 64 52 69 52 5 0 16 7 25 15 23 22 118 83 140 90 10 3 30 19
45 35 14 17 34 30 44 30 10 0 27 7 38 15 10 8 25 15 33 15 8 0 50 23 93 50 43
28 84 50 91 50 7 0 17 4 23 9 18 17 105 61 121 61 16 0 107 45 133 67 9 6 41
19 72 27 31 8 67 22 81 30 37 25 147 66 161 60 7 -3 26 2 42 11 16 8 37 15 46
15 9 0 19 4 22 9 11 17 142 50 259 65 9 1 23 8 29 14 7 7 24 12 38 12 15 0 53
9 86 20 32 11 68 20 80 20 11 0 24 3 27 7 8 7 17 8 117 17 135 12 170 18 175
26 3 6 29 10 58 10 89 0 283 9 298 14 42 13 130 14 197 1 47 -9 99 -13 132 -9
30 3 74 1 96 -5 22 -6 85 -13 140 -16 113 -6 175 -14 189 -25 6 -4 39 -11 75
-15 36 -4 75 -13 87 -21 12 -8 31 -14 41 -14 11 0 55 -9 98 -20 44 -11 91 -20
105 -20 15 0 40 -7 55 -15 16 -8 38 -15 49 -15 11 0 43 -11 72 -24 28 -13 53
-22 56 -20 6 6 154 -49 197 -74 19 -11 53 -25 75 -32 22 -7 56 -23 75 -35 19
-12 62 -32 95 -45 33 -13 72 -32 87 -42 14 -10 31 -18 37 -18 18 0 261 -140
261 -150 0 -5 24 -20 53 -34 29 -13 61 -34 71 -45 11 -12 25 -21 32 -21 6 0
31 -16 54 -35 23 -19 45 -35 48 -35 4 0 25 -16 47 -36 22 -19 70 -56 108 -81
37 -24 67 -48 67 -52 0 -5 28 -30 63 -57 67 -52 112 -93 209 -193 35 -35 120
-122 191 -193 70 -72 127 -134 127 -139 0 -5 4 -9 8 -9 4 0 24 -25 43 -55 18
-30 39 -55 45 -55 13 0 58 -55 120 -147 26 -37 56 -79 69 -93 12 -14 35 -47
50 -75 16 -27 41 -63 55 -79 15 -15 49 -69 75 -120 42 -80 69 -124 147 -238
10 -15 18 -35 18 -45 0 -10 9 -29 20 -43 11 -14 20 -30 20 -36 0 -6 17 -44 39
-85 21 -41 42 -90 46 -109 4 -19 23 -65 41 -102 19 -37 34 -74 34 -83 0 -8 4
-15 9 -15 8 0 15 -23 56 -175 7 -27 23 -77 35 -110 12 -33 24 -80 27 -105 3
-25 13 -64 24 -87 11 -23 29 -99 40 -170 10 -70 26 -149 34 -175 8 -26 15 -80
15 -120 1 -40 7 -91 15 -113 18 -50 23 -701 6 -734 -6 -11 -11 -30 -11 -43 -3
-101 -11 -206 -19 -232 -5 -17 -9 -40 -9 -51 -2 -36 -30 -249 -40 -290 -4 -22
-14 -49 -20 -60 -6 -11 -15 -38 -20 -60 -13 -49 -56 -203 -88 -310 -14 -44
-36 -100 -49 -124 -14 -23 -25 -49 -25 -57 0 -7 -10 -35 -21 -61 -24 -53 -31
-70 -49 -128 -19 -61 -86 -199 -151 -311 -33 -55 -59 -105 -59 -111 0 -6 -15
-30 -33 -54 -18 -24 -45 -64 -59 -89 -14 -25 -36 -56 -48 -70 -12 -14 -30 -42
-41 -62 -10 -20 -29 -48 -41 -61 -44 -48 -95 -112 -121 -154 -14 -22 -45 -61
-69 -85 -24 -23 -61 -65 -83 -91 -68 -82 -128 -149 -169 -186 -22 -20 -81 -76
-131 -126 -51 -49 -122 -112 -159 -140 -96 -72 -149 -112 -166 -127 -40 -34
-119 -88 -129 -88 -6 0 -30 -17 -54 -39 -23 -21 -78 -57 -122 -80 -44 -23 -89
-51 -101 -62 -11 -10 -24 -19 -28 -19 -15 0 -201 -94 -211 -107 -5 -7 -30 -19
-55 -27 -52 -16 -212 -83 -286 -120 -28 -13 -68 -27 -90 -31 -21 -4 -61 -15
-89 -24 -27 -10 -77 -26 -110 -36 -33 -9 -68 -21 -77 -26 -10 -5 -26 -9 -37
-9 -11 0 -40 -9 -65 -20 -26 -11 -83 -24 -127 -30 -44 -5 -97 -14 -117 -19
-57 -15 -210 -34 -220 -27 -6 3 -39 -3 -74 -13 -56 -18 -99 -20 -368 -22 -382
-4 -414 -2 -585 22 -77 11 -183 25 -235 31 -54 6 -111 18 -133 29 -20 11 -74
24 -120 30 -45 6 -91 17 -102 24 -11 6 -47 15 -80 19 -33 4 -80 16 -104 27
-24 10 -56 19 -71 19 -15 0 -37 9 -50 20 -12 11 -39 23 -59 26 -20 4 -41 11
-47 15 -6 5 -48 22 -93 39 -45 16 -107 42 -139 58 -31 15 -102 50 -157 77
-153 74 -159 77 -180 96 -12 10 -36 24 -55 30 -19 7 -51 24 -70 38 -51 38
-127 86 -195 122 -33 17 -64 38 -70 45 -11 15 -62 54 -150 116 -78 55 -71 49
-137 107 -31 27 -69 58 -84 68 -16 10 -38 28 -51 40 -12 13 -29 23 -38 23 -8
0 -15 6 -15 13 0 15 -78 92 -102 100 -10 4 -18 15 -18 25 0 11 -20 36 -45 56
-24 20 -86 83 -137 139 -51 56 -98 103 -105 105 -7 2 -13 10 -13 18 0 8 -25
41 -55 72 -30 31 -75 89 -101 127 -26 39 -53 74 -60 78 -8 4 -14 13 -14 18 0
6 -20 36 -43 67 -24 31 -49 72 -55 89 -13 38 -69 123 -81 123 -5 0 -14 15 -22
33 -7 17 -19 36 -26 40 -7 4 -13 14 -13 22 0 8 -17 47 -39 88 -21 41 -41 83
-44 94 -4 10 -16 32 -27 48 -21 31 -24 38 -72 145 -16 36 -41 92 -57 125 -15
33 -33 78 -39 100 -13 51 -69 209 -81 232 -26 50 -55 161 -81 313 -5 27 -7
-32 -6 -150 3 -198 18 -309 52 -370 7 -14 25 -54 40 -90 14 -36 32 -74 39 -85
7 -11 16 -39 20 -62 3 -24 20 -62 36 -85 16 -24 29 -47 29 -53 0 -24 140 -285
172 -322 8 -10 25 -40 37 -67 12 -27 32 -58 46 -70 13 -11 31 -37 39 -56 8
-19 26 -50 40 -69 14 -19 26 -39 26 -44 0 -5 13 -25 30 -44 16 -18 30 -38 30
-42 0 -5 17 -26 38 -48 20 -22 48 -59 62 -83 14 -24 51 -73 82 -108 32 -35 58
-67 58 -71 0 -4 12 -14 26 -21 14 -8 32 -26 39 -40 14 -26 339 -360 350 -360
11 0 88 -63 114 -93 13 -15 44 -42 70 -59 25 -17 48 -34 51 -37 3 -3 31 -26
63 -50 31 -24 57 -48 57 -53 0 -5 8 -11 18 -15 9 -4 42 -27 72 -53 30 -26 70
-56 89 -66 18 -10 46 -26 60 -34 15 -8 43 -27 62 -41 19 -15 61 -41 94 -59 33
-17 65 -35 70 -39 6 -4 33 -16 60 -26 28 -10 83 -40 123 -66 41 -27 84 -49 96
-49 13 0 31 -9 40 -19 10 -11 41 -25 69 -32 29 -6 63 -20 76 -30 13 -11 31
-19 40 -19 9 0 25 -7 35 -15 11 -8 30 -15 42 -15 13 0 71 -22 130 -50 59 -27
115 -50 126 -50 35 0 249 -59 315 -87 17 -7 44 -13 61 -13 16 0 47 -6 68 -13
22 -7 55 -12 74 -11 19 1 63 -7 96 -18 59 -18 93 -19 700 -15 352 3 653 7 669
11 17 3 59 8 95 11 36 3 83 14 105 24 22 10 76 22 120 25 46 5 96 16 118 27
21 10 48 19 62 19 13 0 58 14 100 31 43 17 94 33 114 36 20 4 59 17 86 30 28
12 56 23 62 23 12 0 109 43 228 101 33 16 67 29 74 29 8 0 29 11 47 25 18 14
36 25 41 25 7 0 50 21 157 78 21 12 46 28 55 35 9 8 45 29 80 47 75 37 112 62
161 106 19 18 63 48 98 67 55 30 140 99 231 187 14 14 42 37 61 50 42 28 168
139 201 176 24 27 141 153 170 183 15 16 193 235 256 315 18 23 53 66 77 96
25 30 52 69 60 85 8 17 29 48 45 70 17 22 38 56 47 75 9 19 25 47 35 62 24 34
109 192 150 278 16 36 54 115 83 175 52 107 96 225 96 255 0 9 13 41 30 72 27
53 51 121 55 158 1 8 7 32 13 53 28 89 32 105 32 136 0 18 5 42 11 53 19 35
46 150 58 243 7 50 16 104 21 120 24 80 32 296 27 740 -6 450 -11 585 -23 615
-8 18 -20 87 -33 185 -5 39 -14 82 -20 95 -5 14 -26 90 -46 170 -20 80 -45
163 -55 185 -10 22 -21 57 -24 78 -15 94 -20 112 -37 126 -17 15 -49 97 -49
125 0 8 -7 19 -15 26 -8 7 -15 20 -15 30 0 9 -12 39 -27 66 -65 122 -93 179
-93 195 0 9 -7 22 -15 29 -8 7 -15 19 -15 27 0 17 -28 72 -46 91 -8 7 -14 18
-14 24 0 6 -16 32 -35 58 -19 26 -38 61 -41 77 -3 16 -20 45 -38 64 -17 19
-52 68 -76 109 -54 90 -64 104 -112 150 -20 19 -45 52 -56 72 -22 43 -62 92
-149 182 -34 35 -69 78 -78 96 -9 17 -27 35 -41 40 -13 5 -29 22 -34 36 -6 15
-32 47 -58 73 -26 25 -56 58 -66 74 -10 15 -23 27 -27 27 -5 0 -39 30 -77 68
-91 89 -232 218 -260 238 -13 9 -33 25 -45 37 -12 12 -35 31 -51 42 -44 31
-156 120 -201 159 -73 64 -87 75 -109 82 -11 4 -39 18 -61 33 -22 14 -47 24
-56 23 -8 -2 -21 8 -27 22 -7 15 -24 28 -46 34 -19 6 -54 23 -78 39 -89 60
-245 143 -270 143 -9 0 -19 4 -23 9 -8 15 -66 41 -87 41 -11 0 -32 8 -46 18
-15 10 -67 33 -117 50 -49 18 -106 40 -125 49 -52 23 -148 52 -194 60 -23 3
-63 16 -91 29 -54 24 -229 64 -305 70 -14 1 -63 9 -110 19 -107 21 -212 33
-270 29 -25 -1 -50 2 -56 7 -14 12 -392 16 -596 8z m4542 -3624 c0 -8 -7 -15
-15 -15 -16 0 -20 12 -8 23 11 12 23 8 23 -8z m-2565 -4846 c11 -17 2 -18 -19
-3 -17 12 -17 14 -4 14 9 0 20 -5 23 -11z"/>
<path d="M3398 8402 c-64 -46 -76 -107 -38 -182 15 -30 18 -46 11 -53 -19 -19
-85 -37 -113 -31 -17 3 -45 -3 -74 -15 -25 -12 -55 -21 -65 -21 -10 0 -36 -6
-56 -14 -51 -19 -214 -69 -236 -73 -29 -5 -148 -62 -181 -86 -38 -28 -84 -49
-115 -53 -13 -2 -40 -14 -60 -28 -20 -14 -41 -26 -47 -26 -15 0 -105 -50 -128
-71 -11 -11 -42 -29 -68 -41 -26 -12 -48 -25 -48 -30 0 -4 -6 -8 -12 -8 -7 0
-24 -10 -38 -21 -34 -27 -98 -69 -140 -92 -19 -11 -49 -32 -65 -48 -17 -16
-35 -29 -40 -29 -5 0 -19 -10 -30 -22 -30 -34 -116 -98 -131 -98 -8 0 -24 -14
-36 -31 -13 -16 -37 -39 -55 -50 -18 -12 -49 -45 -69 -75 -22 -33 -43 -54 -54
-54 -10 0 -25 -7 -34 -15 -8 -8 -18 -15 -23 -15 -5 0 -17 -16 -27 -35 -11 -19
-33 -49 -50 -67 -18 -18 -52 -58 -76 -88 -25 -30 -47 -57 -51 -60 -3 -3 -8
-13 -12 -22 -6 -17 -29 -23 -71 -19 -35 3 -76 57 -76 98 0 21 4 43 8 49 13 20
188 104 217 104 29 0 85 29 85 44 0 27 -32 33 -120 25 -56 -6 -93 -15 -110
-28 -14 -10 -34 -21 -45 -25 -11 -3 -42 -33 -69 -66 -42 -53 -48 -67 -49 -108
-1 -57 36 -130 69 -138 29 -7 63 -45 69 -74 8 -39 22 -46 48 -22 13 12 28 22
33 22 18 0 88 -40 97 -55 4 -8 15 -15 23 -15 8 0 12 -4 9 -10 -3 -5 1 -10 9
-10 8 0 19 -6 23 -13 4 -8 22 -22 38 -33 28 -17 58 -45 73 -69 4 -5 25 -22 46
-37 47 -32 76 -24 76 20 -1 29 -40 67 -176 167 -94 70 -134 113 -134 146 0 34
35 96 59 104 9 3 28 23 42 45 13 22 27 40 31 40 5 0 20 13 34 30 32 36 60 46
79 30 23 -19 18 -40 -19 -74 -54 -50 -89 -122 -81 -167 13 -76 139 -158 218
-142 19 4 50 25 80 56 46 47 49 49 77 37 35 -14 50 -7 50 25 0 28 -42 80 -159
196 -104 103 -119 131 -97 183 18 43 41 46 82 10 50 -43 77 -54 118 -44 44 10
69 30 102 83 36 55 48 48 41 -24 -6 -70 -23 -94 -79 -111 -22 -6 -44 -20 -49
-30 -14 -27 -2 -58 24 -59 85 -5 121 -9 153 -18 21 -6 45 -6 59 -1 13 5 26 6
29 3 3 -3 19 0 36 7 25 10 29 17 24 34 -11 37 -24 45 -77 48 l-52 3 2 60 c3
109 3 117 -11 143 -18 35 -44 57 -81 69 -54 17 -39 93 22 107 15 4 39 18 53
30 36 34 103 76 118 76 8 0 25 9 39 20 20 15 29 17 39 9 25 -21 15 -43 -26
-61 -22 -9 -43 -24 -46 -33 -4 -9 -19 -29 -35 -45 -71 -71 -3 -227 114 -260
32 -9 42 -8 65 8 50 34 100 53 127 46 14 -3 25 -10 25 -15 0 -19 40 -8 55 15
14 20 14 29 4 48 -7 13 -15 25 -19 28 -5 3 -23 32 -41 65 -18 33 -48 81 -66
108 -43 61 -84 153 -77 172 3 8 21 19 39 24 19 5 44 18 56 30 12 11 36 23 53
27 17 4 47 17 68 30 45 29 57 30 74 7 22 -30 17 -53 -11 -53 -14 0 -44 -9 -66
-21 -82 -41 -93 -159 -23 -244 21 -26 52 -52 69 -59 34 -15 121 -11 142 6 7 5
36 7 67 3 53 -7 56 -6 67 18 10 21 8 30 -10 55 -11 17 -21 34 -21 39 0 6 -9
18 -19 27 -11 10 -27 49 -36 87 -16 64 -16 71 -1 94 24 36 58 32 106 -13 50
-48 55 -96 15 -144 -29 -34 -31 -47 -11 -73 13 -17 17 -18 40 -6 30 16 74 77
84 115 21 76 -25 164 -107 205 -65 33 -99 31 -146 -10 -39 -35 -60 -33 -75 7
-13 32 -8 40 38 60 20 8 56 24 80 35 23 10 48 19 54 19 6 0 30 9 52 19 23 11
60 22 83 26 40 6 43 5 53 -21 6 -16 16 -50 21 -76 9 -39 8 -52 -5 -70 -25 -36
-19 -53 35 -102 56 -50 78 -57 86 -26 3 11 9 18 13 15 4 -3 10 13 14 35 7 44
27 60 76 60 49 0 67 -15 75 -62 20 -118 102 -169 106 -66 1 23 -26 145 -41
183 -43 114 -60 215 -40 240 18 22 96 20 105 -2 16 -40 47 -162 56 -216 5 -32
14 -67 20 -78 5 -11 9 -38 7 -61 -3 -34 1 -43 25 -61 24 -19 29 -20 43 -6 8 9
15 24 15 35 1 41 -24 160 -37 182 -8 12 -14 39 -13 60 0 20 -4 57 -10 82 -17
75 -14 99 14 112 20 9 25 18 23 37 -3 24 -8 26 -66 32 -73 7 -98 25 -104 77
-7 53 -1 62 59 88 58 26 58 26 43 55 -16 30 -85 25 -132 -9z m-156 -379 c23
-28 49 -103 43 -124 -7 -22 -85 -59 -125 -59 -36 0 -48 23 -66 126 -8 40 18
68 56 61 14 -3 32 -2 40 4 22 13 35 11 52 -8z m-605 -395 c60 -64 70 -119 28
-158 -23 -21 -28 -22 -65 -11 -41 12 -80 57 -80 91 0 39 23 92 43 100 35 14
41 12 74 -22z m-350 -178 c33 -12 63 -63 63 -109 0 -44 -28 -68 -87 -75 -50
-6 -51 -6 -73 29 -12 20 -24 56 -25 80 -3 42 -2 44 38 64 49 24 45 24 84 11z
m-433 -146 c20 -19 20 -18 0 -60 -13 -26 -22 -34 -43 -34 -15 0 -32 5 -39 12
-13 13 -16 57 -4 74 17 26 64 30 86 8z m-197 -380 c33 -13 45 -24 58 -56 15
-37 14 -41 -5 -69 -12 -16 -33 -32 -48 -35 -15 -3 -35 -8 -45 -11 -12 -3 -30
6 -48 23 -41 39 -41 94 0 135 34 34 33 34 88 13z"/>
<path d="M3907 8228 c-20 -11 -22 -51 -4 -66 14 -12 134 -10 181 3 30 8 46 -4
46 -37 0 -15 -9 -18 -44 -18 -25 0 -57 -5 -72 -10 -75 -29 -99 -122 -46 -181
26 -29 34 -32 108 -37 51 -3 85 -10 97 -20 25 -22 21 -68 -8 -97 -28 -29 -49
-32 -67 -9 -66 83 -106 96 -133 44 -22 -42 -10 -75 39 -110 22 -17 57 -54 76
-82 19 -29 44 -60 55 -69 18 -16 20 -16 32 0 15 20 17 73 2 88 -15 15 -2 51
21 58 32 10 78 65 88 106 23 89 -66 169 -189 169 l-59 0 0 38 0 37 79 -3 c70
-4 81 -2 100 17 14 14 21 34 21 59 0 50 9 60 55 64 29 2 41 8 43 22 2 10 0 22
-5 27 -13 13 -395 19 -416 7z"/>
<path d="M4348 8234 c-3 -3 -1 -22 5 -42 6 -20 9 -90 8 -155 -3 -111 -2 -119
24 -163 44 -75 112 -101 191 -74 43 15 94 104 94 164 0 25 6 66 12 92 l13 46
60 -7 c33 -3 74 -8 90 -9 63 -7 95 -19 101 -38 10 -31 -19 -53 -65 -49 -52 3
-83 -18 -133 -93 -39 -58 -40 -63 -34 -119 9 -88 46 -156 103 -191 94 -57 175
-44 233 36 35 48 38 78 10 103 -20 18 -21 17 -65 -31 -38 -41 -51 -49 -83 -50
-20 -1 -47 5 -58 13 -30 19 -58 96 -51 143 9 67 79 120 132 100 46 -17 80 8
99 72 9 32 18 44 34 46 12 2 22 -1 22 -6 0 -5 26 -12 58 -16 32 -4 69 -14 81
-23 13 -8 51 -26 85 -38 53 -19 61 -26 64 -49 4 -32 -35 -96 -59 -96 -18 0
-49 31 -49 49 0 18 -50 34 -66 20 -18 -15 -18 -57 0 -91 14 -27 36 -88 36
-101 0 -4 11 -28 25 -55 13 -26 31 -74 40 -107 22 -86 69 -119 100 -71 18 27
13 59 -15 116 -29 57 -50 110 -50 125 0 7 12 23 28 34 55 41 72 56 72 65 0 5
9 29 21 53 23 48 43 54 81 23 14 -11 37 -24 51 -29 14 -6 34 -22 43 -36 16
-24 15 -29 -3 -83 -16 -47 -25 -60 -54 -74 -56 -26 -62 -39 -49 -101 6 -30 19
-62 29 -71 23 -21 60 -13 86 20 l22 27 47 -23 c59 -28 75 -62 49 -99 -52 -73
-66 -153 -31 -175 22 -13 61 21 78 67 33 91 128 277 156 307 23 23 26 24 51
10 14 -8 31 -23 37 -32 11 -19 9 -23 -85 -193 -89 -161 -101 -190 -91 -227 9
-35 34 -47 57 -28 8 7 28 38 44 71 34 69 146 266 166 292 12 17 16 17 43 3 49
-25 57 -78 17 -116 -14 -13 -25 -28 -25 -34 0 -11 -45 -89 -106 -182 -19 -29
-39 -65 -45 -80 -9 -26 -7 -31 17 -53 26 -22 29 -22 39 -6 5 9 27 39 47 65 21
26 49 71 64 101 15 30 39 72 54 94 15 22 35 52 44 68 20 34 36 34 66 2 13 -14
29 -25 35 -25 6 0 42 -29 78 -65 49 -47 67 -72 67 -91 0 -33 -10 -29 -94 31
-35 25 -72 45 -83 45 -48 0 -93 -65 -93 -135 0 -36 2 -39 83 -112 54 -50 68
-72 61 -101 -7 -26 -28 -34 -70 -26 -46 9 -107 97 -98 143 12 60 -43 85 -71
31 -8 -16 -15 -48 -15 -72 0 -64 68 -147 152 -186 74 -34 100 -29 154 31 29
32 34 44 34 86 0 44 -5 56 -41 98 -23 26 -49 52 -58 57 -43 25 -56 76 -18 75
23 0 70 -17 52 -18 -5 -1 10 -19 34 -42 51 -46 67 -46 126 1 21 16 41 30 44
30 3 0 23 -17 44 -36 44 -41 45 -70 3 -97 -56 -37 -191 -201 -203 -247 -12
-47 16 -142 58 -197 47 -60 82 -74 112 -45 25 25 16 68 -16 83 -33 16 -61 59
-60 93 3 79 14 101 79 157 11 9 41 40 68 68 59 62 88 66 129 20 15 -17 27 -38
27 -46 0 -44 -77 -123 -120 -123 -11 0 -32 7 -45 16 -20 13 -28 14 -40 4 -24
-20 -18 -56 16 -95 24 -27 39 -35 65 -35 34 0 44 5 88 45 89 80 121 92 162 57
18 -15 68 -84 114 -158 20 -32 3 -50 -33 -33 -15 7 -27 15 -27 18 0 4 -15 15
-34 25 -45 24 -155 18 -189 -10 -52 -44 -76 -80 -92 -140 -16 -58 -16 -67 -1
-111 26 -78 52 -112 103 -135 79 -35 143 -15 160 49 12 51 -20 67 -77 38 -37
-19 -70 -6 -92 38 -40 78 -28 124 41 170 60 40 95 36 129 -12 15 -22 39 -45
54 -51 31 -14 81 -5 99 16 6 8 17 14 24 14 16 0 42 -30 47 -55 4 -23 63 -44
79 -28 6 6 13 29 16 51 5 39 4 42 -31 58 -23 12 -39 28 -46 48 -5 17 -28 53
-50 79 -21 27 -45 64 -52 83 -6 18 -15 34 -19 34 -4 0 -10 9 -14 19 -3 10 -19
25 -36 34 -17 8 -48 36 -70 63 -63 77 -161 186 -197 219 -18 17 -61 57 -95 91
-34 33 -107 99 -162 147 -157 134 -175 154 -175 191 0 23 9 41 29 60 27 26 31
27 70 16 30 -8 48 -21 70 -54 37 -53 71 -141 71 -182 0 -17 10 -43 21 -58 21
-26 22 -27 41 -9 46 41 -1 234 -80 328 -60 72 -142 101 -201 71 -36 -19 -76
-70 -85 -108 -9 -41 -39 -35 -102 19 l-54 47 6 121 c6 114 5 125 -16 167 -17
35 -34 51 -74 71 -65 33 -96 34 -124 5 -28 -31 -62 -106 -62 -141 0 -15 -6
-30 -14 -33 -8 -3 -52 13 -98 35 -47 23 -88 41 -92 41 -5 0 -26 14 -48 32 -22
17 -77 44 -122 59 -45 15 -103 39 -130 53 -27 14 -56 26 -65 26 -9 0 -34 9
-55 21 -21 11 -44 18 -50 16 -7 -3 -23 1 -37 9 -13 7 -37 13 -52 14 -15 0 -40
6 -55 14 -15 7 -52 17 -82 21 -30 4 -60 11 -66 16 -5 4 -37 11 -70 14 -32 3
-72 11 -87 17 -15 6 -30 9 -32 6 -3 -3 -36 1 -73 9 -52 10 -273 42 -303 43 -3
0 -8 -2 -11 -6z m204 -94 c9 0 24 -8 33 -17 14 -14 16 -28 10 -92 -4 -42 -14
-88 -23 -103 -31 -53 -106 -61 -118 -13 -3 14 -4 62 -3 109 4 93 24 132 64
122 11 -3 28 -6 37 -6z m1529 -296 c25 -41 24 -151 -2 -167 -19 -12 -126 35
-135 58 -8 21 14 81 48 132 29 43 31 44 49 27 11 -10 29 -32 40 -50z m-261
-129 c60 -42 67 -64 40 -129 -12 -31 -28 -56 -35 -56 -7 0 -38 12 -69 26 -63
29 -65 36 -40 111 28 82 44 90 104 48z"/>
<path d="M7160 7947 c0 -8 9 -22 21 -33 21 -19 21 -19 17 11 -3 30 -38 51 -38
22z"/>
<path d="M3910 7458 c-19 -5 -65 -13 -101 -17 -36 -4 -72 -11 -79 -16 -7 -5
-43 -9 -80 -10 -102 -4 -309 -50 -382 -87 -21 -10 -54 -18 -76 -18 -21 0 -42
-4 -48 -8 -5 -5 -38 -19 -74 -32 -36 -13 -69 -27 -75 -31 -32 -23 -89 -49
-107 -49 -12 0 -31 -9 -42 -19 -12 -11 -49 -29 -83 -40 -37 -12 -98 -47 -152
-86 -50 -36 -106 -73 -126 -82 -19 -9 -35 -20 -35 -25 0 -4 -4 -8 -9 -8 -18 0
-79 -45 -84 -62 -3 -9 -20 -23 -40 -31 -19 -8 -50 -29 -68 -46 -19 -17 -61
-56 -94 -86 -33 -30 -65 -55 -71 -55 -11 0 -133 -120 -193 -190 -64 -74 -151
-188 -151 -197 0 -6 -9 -18 -20 -28 -12 -11 -33 -41 -47 -67 -14 -26 -41 -60
-60 -74 -20 -15 -45 -50 -63 -90 -16 -35 -36 -72 -45 -80 -18 -18 -68 -115
-80 -154 -4 -14 -13 -32 -20 -40 -7 -8 -22 -40 -33 -70 -11 -30 -27 -68 -36
-85 -9 -16 -16 -37 -16 -45 0 -8 -14 -53 -31 -100 -17 -47 -35 -105 -41 -130
-6 -25 -15 -50 -20 -57 -5 -6 -13 -40 -18 -76 -5 -35 -16 -76 -24 -92 -16 -30
-20 -60 -37 -245 -6 -63 -13 -131 -15 -150 -15 -117 -21 -184 -18 -208 2 -15
6 -106 9 -202 5 -198 11 -274 25 -300 6 -10 10 -30 10 -43 0 -14 6 -42 14 -64
7 -21 16 -66 19 -100 3 -34 13 -76 21 -92 9 -17 16 -52 16 -80 0 -27 5 -53 10
-56 5 -3 10 -16 10 -29 0 -12 3 -25 6 -29 4 -3 17 -39 31 -79 22 -66 40 -111
108 -263 12 -27 28 -68 35 -90 18 -57 17 -54 61 -125 22 -36 50 -87 63 -115
13 -27 49 -84 80 -125 31 -41 56 -79 56 -84 0 -12 70 -109 86 -119 7 -4 26
-29 42 -56 17 -27 73 -93 124 -148 51 -54 105 -114 120 -133 14 -20 42 -44 62
-55 20 -11 39 -30 42 -42 4 -14 24 -31 52 -44 25 -13 75 -52 111 -89 60 -60
190 -160 210 -160 4 0 18 -11 30 -24 21 -22 84 -62 226 -142 28 -15 61 -36 74
-46 13 -10 31 -18 41 -18 9 0 37 -11 62 -24 24 -13 55 -27 69 -31 13 -4 33
-15 44 -25 11 -10 54 -25 95 -35 41 -10 101 -31 132 -46 32 -16 66 -29 78 -29
11 0 37 -6 57 -14 21 -7 61 -18 88 -24 28 -5 88 -19 134 -31 46 -12 118 -23
160 -26 42 -3 98 -9 124 -15 56 -11 362 -15 557 -7 132 6 253 24 356 53 28 8
66 14 85 14 19 0 53 9 76 19 23 11 77 25 120 31 43 7 102 23 132 37 30 13 93
37 140 52 96 32 182 73 201 96 8 9 40 29 72 45 32 16 66 36 74 44 8 8 39 23
69 32 30 10 55 21 55 26 0 4 5 8 11 8 6 0 37 22 68 48 31 26 95 78 143 115 77
60 191 162 268 241 135 138 170 176 170 184 0 5 35 52 78 105 42 52 89 114
105 138 15 24 54 82 87 129 32 47 61 95 65 107 3 13 19 45 35 73 17 28 30 55
30 61 0 5 27 63 60 128 33 66 60 127 60 138 0 10 12 45 25 78 14 33 25 65 25
71 0 6 8 26 17 45 9 18 22 63 29 99 7 36 18 88 26 115 8 28 15 75 17 105 1 30
9 78 16 105 17 61 25 142 31 305 2 69 9 146 15 173 9 38 8 55 -4 85 -11 28
-13 50 -6 91 4 30 4 61 0 70 -5 9 -9 40 -9 70 -1 73 -13 161 -22 161 -4 0 -10
43 -13 95 -4 57 -17 129 -32 179 -14 47 -27 97 -29 113 -5 36 -22 79 -34 87
-6 3 -8 15 -5 26 3 10 -7 43 -21 72 -14 28 -26 58 -26 66 0 8 -9 25 -19 38
-11 14 -23 50 -27 81 -4 35 -13 61 -25 71 -11 9 -19 23 -19 30 0 20 -70 162
-80 162 -4 0 -22 29 -39 64 -17 36 -42 73 -56 84 -14 11 -25 30 -25 42 0 12
-13 34 -30 48 -16 15 -30 34 -30 42 0 26 -125 190 -226 296 -30 32 -62 72 -70
90 -8 17 -35 46 -59 63 -24 17 -46 39 -49 49 -3 10 -25 33 -48 52 -24 19 -68
58 -99 85 -31 28 -77 66 -102 85 -25 19 -72 59 -104 88 -67 61 -126 102 -148
102 -9 0 -18 6 -21 14 -3 7 -28 28 -57 46 -29 18 -64 41 -78 51 -48 33 -160
89 -178 89 -10 0 -35 11 -55 25 -20 14 -43 25 -50 25 -7 0 -23 9 -36 20 -13
11 -41 25 -64 31 -22 6 -49 17 -60 25 -11 8 -30 14 -41 14 -11 0 -28 7 -38 14
-10 8 -27 12 -38 9 -11 -3 -28 2 -37 10 -10 9 -45 23 -78 30 -33 8 -69 19 -79
25 -19 10 -43 16 -150 42 -27 6 -81 14 -120 17 -38 3 -78 9 -87 14 -9 5 -42
10 -74 10 -31 1 -68 8 -83 15 -19 10 -75 13 -217 13 -105 -1 -200 1 -210 4
-10 2 -35 0 -54 -5z m255 -103 c44 -1 88 3 98 9 13 8 20 8 25 -1 11 -17 104
-35 175 -34 34 0 71 -6 87 -14 16 -8 46 -15 67 -15 45 0 161 -23 189 -38 21
-11 171 -58 219 -68 17 -3 53 -17 80 -29 28 -13 88 -37 135 -55 93 -34 115
-44 145 -62 69 -42 95 -56 134 -72 25 -10 60 -31 78 -47 19 -16 38 -29 43 -29
13 0 100 -62 100 -72 0 -4 7 -8 16 -8 9 0 31 -12 49 -27 17 -16 42 -35 55 -43
12 -8 28 -20 34 -25 6 -6 36 -30 66 -53 60 -47 204 -175 262 -234 20 -21 39
-38 41 -38 11 0 107 -102 107 -114 0 -8 15 -27 34 -44 19 -16 37 -38 40 -48 3
-11 16 -30 28 -44 13 -14 35 -43 50 -65 15 -22 43 -55 63 -73 19 -19 35 -43
35 -54 0 -11 8 -28 18 -37 28 -26 90 -124 98 -153 3 -16 10 -28 14 -28 5 0 32
-46 60 -102 28 -57 56 -107 61 -112 5 -6 9 -22 9 -38 0 -15 11 -43 24 -62 13
-20 27 -52 31 -73 4 -20 15 -49 26 -64 10 -15 19 -36 19 -48 0 -11 8 -44 19
-73 42 -121 64 -202 66 -247 1 -26 7 -56 13 -67 6 -11 13 -43 16 -70 3 -27 12
-81 20 -121 9 -39 13 -78 10 -87 -3 -8 1 -39 10 -70 16 -53 21 -106 11 -106
-11 0 -85 53 -85 61 0 4 -11 20 -24 36 -14 17 -29 54 -36 91 -14 71 -30 91
-30 38 0 -19 -4 -37 -9 -41 -16 -9 -22 12 -11 40 9 24 6 32 -26 67 -20 22 -40
53 -46 69 -5 16 -14 29 -19 29 -5 0 -12 18 -15 40 -5 28 -17 49 -43 73 -49 44
-151 168 -151 183 0 7 -7 19 -15 28 -13 12 -21 36 -24 69 -1 4 -8 7 -16 7 -8
0 -21 14 -30 30 -17 34 -29 37 -51 15 -9 -8 -22 -15 -31 -15 -23 0 -10 24 18
31 38 9 30 24 -62 116 -23 24 -50 45 -61 49 -11 3 -40 26 -64 51 -34 34 -51
44 -67 39 -11 -3 -36 2 -54 11 -24 11 -44 13 -71 8 -20 -4 -53 -9 -73 -10 -55
-4 -85 -29 -98 -80 -6 -24 -11 -53 -11 -64 0 -11 -9 -31 -21 -43 -73 -82 -99
-121 -99 -151 0 -37 -25 -81 -86 -153 -24 -28 -44 -56 -44 -61 0 -13 -41 -49
-65 -57 -19 -6 -70 -76 -125 -170 -21 -37 -64 -90 -134 -166 -8 -8 -30 -28
-50 -45 -20 -16 -71 -65 -115 -107 -43 -42 -89 -80 -103 -83 -13 -4 -31 -16
-39 -28 -8 -12 -31 -39 -52 -62 -22 -22 -45 -54 -52 -72 -7 -17 -26 -39 -42
-49 -15 -10 -42 -33 -59 -51 -38 -40 -72 -42 -111 -9 l-27 24 28 42 c16 24 46
60 67 81 23 23 39 48 39 61 0 13 8 31 18 39 9 9 25 30 34 48 9 17 29 36 43 41
14 5 25 13 25 18 0 5 21 32 48 60 26 28 57 64 69 79 12 15 31 39 43 53 12 14
31 38 43 54 12 15 30 36 40 45 10 9 50 55 88 104 39 48 74 87 78 87 20 0 61
51 61 76 0 59 -65 83 -130 49 -28 -14 -130 -138 -130 -157 0 -15 -72 -107
-159 -203 -45 -49 -107 -122 -137 -162 -30 -40 -64 -79 -76 -87 -40 -28 -108
-121 -114 -156 -12 -63 -31 -88 -75 -100 -36 -10 -43 -9 -55 7 -35 46 13 152
108 239 24 22 57 59 73 83 17 25 54 70 84 100 29 30 68 85 85 121 18 36 50 84
72 106 48 51 104 138 104 162 0 35 -24 55 -56 48 -31 -7 -133 -99 -181 -164
-16 -20 -38 -46 -50 -57 -13 -11 -25 -29 -26 -40 -7 -37 -35 -90 -65 -120 -16
-16 -32 -39 -36 -50 -3 -11 -40 -59 -81 -105 -50 -56 -91 -116 -120 -175 -25
-49 -50 -90 -55 -89 -6 1 -17 2 -26 3 -12 1 -15 12 -12 57 2 31 8 60 15 66 6
5 28 42 49 81 39 76 68 121 96 149 10 10 18 28 18 39 0 41 43 140 67 156 14 9
29 35 38 67 9 30 29 66 48 86 19 19 60 82 91 140 32 58 75 134 96 170 22 36
40 74 40 86 0 26 -49 74 -76 74 -12 0 -26 -11 -34 -25 -7 -14 -17 -25 -22 -25
-4 0 -8 -5 -8 -11 0 -6 -22 -45 -50 -87 -27 -42 -50 -81 -50 -87 0 -6 -11 -22
-24 -34 -14 -13 -32 -47 -41 -76 -10 -29 -30 -67 -47 -85 -35 -38 -48 -69 -48
-112 0 -21 -10 -40 -36 -66 -40 -40 -59 -73 -69 -122 -4 -19 -19 -55 -35 -80
-56 -91 -110 -198 -110 -217 0 -11 -11 -30 -25 -43 -23 -22 -25 -22 -50 -6
-29 19 -34 66 -10 121 7 19 19 63 26 98 7 34 23 86 36 116 12 29 23 69 23 88
0 18 11 55 24 81 13 26 27 67 31 92 7 42 45 169 65 215 5 11 18 42 30 68 20
45 20 50 6 72 -29 44 -49 47 -99 15 -49 -31 -64 -61 -53 -104 6 -24 -11 -76
-24 -76 -4 0 -13 -28 -20 -62 -7 -35 -21 -73 -31 -86 -9 -12 -20 -42 -24 -65
-3 -23 -20 -68 -37 -100 -16 -32 -27 -65 -24 -73 3 -9 1 -24 -4 -35 -6 -10
-11 -40 -12 -67 0 -26 -4 -52 -9 -58 -5 -6 -13 -38 -17 -70 -6 -44 -18 -75
-46 -117 -38 -57 -49 -66 -61 -47 -3 6 1 10 9 10 22 0 20 15 -5 50 -17 23 -20
37 -15 68 3 22 8 76 11 119 3 43 13 108 21 143 21 91 36 215 34 283 -1 39 5
71 19 100 19 40 26 100 36 302 1 33 8 76 15 95 14 43 40 248 33 267 -5 13 -27
17 -73 13 -37 -3 -50 -18 -50 -57 0 -18 -7 -50 -16 -71 -10 -23 -17 -77 -20
-145 -3 -69 -10 -120 -19 -137 -9 -18 -15 -58 -15 -102 0 -40 -7 -104 -15
-143 -8 -38 -15 -89 -15 -113 0 -24 -7 -57 -16 -74 -10 -20 -14 -42 -9 -65 4
-21 2 -40 -5 -48 -12 -14 -16 -66 -25 -300 -7 -169 -4 -161 -45 -157 -66 7
-72 20 -67 159 2 67 2 125 0 127 -3 3 -6 41 -8 85 -2 44 -8 96 -15 116 -7 20
-10 45 -7 56 3 10 -4 54 -14 96 -11 43 -20 107 -20 143 1 224 -2 249 -34 287
-25 29 -35 34 -54 28 -48 -15 -67 -124 -32 -193 15 -30 19 -70 24 -202 4 -91
13 -192 21 -226 8 -33 20 -107 26 -165 5 -57 15 -131 20 -164 12 -73 13 -132
2 -139 -5 -3 -18 -3 -30 0 -26 7 -40 47 -52 144 -5 44 -24 112 -44 165 -20 49
-36 106 -36 126 0 22 -7 42 -16 50 -30 25 -57 101 -59 166 -1 54 -6 68 -33
102 -22 27 -36 62 -48 112 -9 41 -21 97 -28 125 -6 27 -19 63 -29 78 -13 20
-17 38 -13 61 6 29 1 40 -44 94 -55 66 -77 74 -110 39 -16 -18 -20 -30 -15
-53 4 -16 8 -43 9 -60 1 -16 23 -69 49 -117 26 -48 47 -95 47 -104 0 -20 15
-69 41 -136 11 -26 19 -59 19 -75 0 -15 12 -55 25 -88 14 -33 25 -66 25 -73 0
-7 16 -51 35 -98 19 -46 35 -92 35 -102 0 -9 11 -33 24 -52 13 -20 27 -59 31
-90 4 -30 20 -79 36 -109 46 -87 36 -122 -33 -114 -36 5 -38 8 -53 62 -9 31
-30 76 -46 100 -16 25 -29 57 -29 71 0 15 -11 44 -25 64 -14 20 -25 42 -25 48
0 17 -51 117 -96 188 -22 36 -49 88 -59 115 -9 28 -30 67 -46 87 -16 20 -29
41 -29 47 0 14 -64 61 -83 61 -16 0 -33 -34 -28 -60 6 -38 118 -272 142 -300
27 -31 102 -196 113 -250 6 -27 69 -136 100 -171 16 -19 46 -80 46 -93 0 -3
-18 -15 -41 -26 -48 -25 -60 -19 -79 42 -7 24 -28 59 -45 78 -32 35 -75 115
-75 138 0 25 -51 112 -65 112 -9 0 -15 9 -15 24 0 13 -15 46 -34 74 -19 27
-43 65 -53 83 -22 42 -62 98 -85 121 -10 10 -19 24 -19 31 -5 53 -11 71 -31
99 -26 36 -44 66 -54 88 -4 8 -13 22 -19 30 -7 8 -15 26 -18 40 -8 32 -73 100
-95 100 -9 0 -24 -5 -32 -10 -20 -12 -17 -85 4 -109 9 -9 16 -22 16 -27 0 -28
23 -85 45 -110 14 -16 31 -48 40 -73 8 -24 32 -68 52 -98 53 -78 78 -120 109
-183 15 -30 44 -78 64 -105 21 -28 41 -61 45 -75 4 -14 18 -41 31 -60 13 -19
24 -38 24 -42 0 -4 25 -49 57 -100 82 -136 86 -232 9 -212 -15 4 -39 24 -55
48 -16 23 -37 48 -46 56 -9 8 -30 40 -46 72 -16 32 -54 87 -83 122 -30 34 -61
77 -70 94 -8 16 -26 39 -38 49 -26 20 -98 124 -98 139 0 16 -97 114 -112 114
-8 0 -24 -9 -36 -20 -26 -25 -30 -81 -6 -101 9 -7 31 -36 49 -64 18 -27 46
-64 62 -80 47 -50 113 -133 113 -142 0 -4 10 -19 21 -33 11 -14 38 -52 61 -85
47 -69 61 -85 141 -169 60 -63 66 -76 43 -95 -24 -20 -77 9 -149 80 -37 37
-77 71 -88 74 -10 4 -19 11 -19 16 0 5 -6 9 -14 9 -8 0 -17 14 -21 30 -4 17
-10 30 -15 30 -5 0 -11 9 -15 20 -3 10 -22 25 -41 32 -24 8 -34 18 -34 33 0
23 -32 56 -97 99 -24 16 -43 36 -43 45 0 21 -63 117 -113 173 -57 64 -137 169
-154 203 -26 49 -67 85 -92 78 -22 -6 -80 18 -120 48 -29 23 -72 24 -112 4
-23 -12 -34 -13 -50 -4 -12 6 -34 9 -49 5 -16 -3 -52 -1 -81 3 -45 7 -59 5
-100 -15 -26 -13 -58 -24 -70 -24 -28 0 -149 -86 -149 -106 0 -7 5 -16 10 -19
22 -13 7 -52 -36 -98 -58 -61 -78 -58 -70 11 15 125 19 148 32 167 8 11 14 44
14 75 0 31 4 60 8 66 13 15 30 75 37 129 5 43 75 239 121 342 8 18 26 63 40
100 33 91 66 153 81 153 7 0 21 19 33 43 54 112 146 260 189 306 36 38 81 92
81 98 0 11 59 83 119 147 101 106 123 127 164 157 21 15 52 46 68 68 16 23 34
41 40 41 11 0 86 56 166 124 19 16 47 36 62 45 39 22 87 52 127 78 19 13 45
25 58 29 13 3 34 17 47 30 12 13 31 24 41 24 10 0 35 11 56 24 20 13 51 27 69
31 17 3 37 13 44 21 6 8 22 14 34 14 12 0 28 7 35 15 7 8 23 15 36 15 20 0
118 39 176 71 10 5 27 9 38 9 12 0 51 10 88 21 131 41 174 51 287 64 22 3 53
10 69 15 16 6 65 10 110 10 54 0 91 5 111 16 16 8 39 13 50 11 11 -3 31 -1 45
3 14 5 34 6 45 3 11 -3 56 -6 100 -8z m2770 -1766 c-10 -15 -25 -10 -19 6 4 8
10 12 15 9 5 -3 7 -10 4 -15z m-736 -221 c34 -10 162 -129 206 -191 11 -16 32
-45 48 -65 15 -19 37 -51 48 -69 12 -19 32 -38 45 -43 13 -5 30 -26 39 -47 9
-21 24 -47 34 -58 10 -11 28 -40 40 -65 26 -55 67 -101 104 -117 15 -7 32 -25
38 -40 16 -45 32 -75 73 -135 37 -55 38 -59 23 -82 -9 -13 -34 -32 -55 -41
-54 -24 -93 -113 -98 -221 -1 -42 -7 -81 -12 -87 -5 -7 -15 -29 -21 -49 -16
-49 -133 -146 -187 -155 -47 -8 -149 -76 -172 -115 -9 -15 -20 -28 -24 -28
-14 0 -59 -88 -63 -124 -5 -39 -28 -90 -52 -118 -38 -43 -37 -173 0 -187 42
-16 127 64 127 117 0 10 12 35 26 56 14 21 29 57 31 80 5 39 33 87 77 132 31
31 165 110 208 122 53 15 69 0 118 -108 11 -25 27 -58 35 -73 30 -57 13 -132
-54 -240 -22 -36 -23 -45 -17 -122 8 -100 0 -122 -74 -191 -32 -30 -54 -60
-60 -84 -6 -21 -16 -40 -23 -43 -7 -2 -22 -25 -35 -49 -17 -36 -22 -62 -22
-129 0 -46 5 -101 11 -123 6 -21 8 -49 4 -63 -5 -22 -10 -24 -33 -17 -15 4
-34 7 -42 7 -125 0 -573 -15 -597 -19 -49 -9 -66 7 -93 93 -23 71 -28 79 -57
88 -27 7 -36 18 -49 55 -9 25 -20 53 -25 62 -5 10 -9 31 -9 48 0 20 -11 42
-34 68 l-34 37 -6 130 c-9 176 -20 219 -73 279 -24 26 -43 54 -43 61 0 7 -7
35 -15 61 -8 27 -21 74 -29 104 -12 42 -22 59 -44 72 -28 17 -46 55 -66 142
-8 31 -54 86 -72 86 -6 0 -23 26 -38 58 -14 31 -31 64 -37 73 -7 9 -9 30 -5
51 5 27 34 64 135 166 71 73 133 132 138 132 6 0 30 25 54 57 42 53 79 97 132
153 13 14 46 52 73 84 27 33 60 72 74 87 14 16 38 43 54 61 16 18 49 75 73
126 25 51 55 104 69 119 13 14 28 41 33 59 11 40 95 170 119 184 9 5 24 7 32
4 8 -4 30 -11 49 -16z m-1862 -300 c-3 -8 -6 -5 -6 6 -1 11 2 17 5 13 3 -3 4
-12 1 -19z m-1558 -41 c11 -14 6 -27 -10 -27 -5 0 -13 9 -19 20 -8 16 -8 20 3
20 8 0 20 -6 26 -13z m-1015 -106 c3 -5 46 -8 95 -8 l90 1 46 -49 c25 -26 53
-61 61 -77 8 -15 27 -34 43 -42 37 -20 89 -80 98 -114 3 -15 26 -52 49 -82 91
-115 125 -166 134 -200 6 -19 17 -44 25 -54 8 -11 15 -28 15 -38 0 -10 16 -40
36 -68 22 -31 38 -66 42 -93 3 -23 15 -55 27 -72 39 -52 40 -72 6 -89 -38 -20
-46 -47 -26 -86 23 -44 53 -55 96 -37 35 14 35 14 81 -27 25 -22 50 -51 57
-63 6 -13 25 -30 41 -38 21 -11 30 -23 30 -40 0 -13 24 -59 53 -102 29 -43 58
-90 66 -105 7 -14 38 -47 67 -73 30 -25 54 -54 54 -65 0 -20 224 -251 274
-281 17 -10 39 -19 50 -19 10 0 48 -15 85 -34 36 -19 89 -43 118 -54 46 -17
55 -18 79 -6 17 9 59 14 116 14 88 0 92 1 139 35 34 26 65 39 108 46 34 5 73
14 88 20 42 16 240 209 306 298 58 79 90 117 154 186 30 33 72 88 92 122 58
101 164 240 196 259 17 10 58 46 93 81 62 63 64 64 87 49 13 -9 32 -27 42 -42
10 -14 32 -44 48 -67 17 -23 39 -64 49 -92 17 -44 79 -134 98 -143 4 -2 10
-20 13 -40 9 -51 32 -96 86 -167 81 -106 93 -150 68 -251 -9 -36 -8 -53 5 -93
9 -28 16 -58 16 -68 0 -10 9 -31 20 -48 11 -16 25 -54 31 -83 21 -104 66 -181
167 -290 12 -14 22 -37 22 -51 0 -24 -7 -28 -76 -49 -42 -13 -88 -32 -103 -42
-30 -22 -121 -30 -333 -31 -93 0 -144 4 -160 12 -16 9 -75 13 -201 12 -163 0
-181 -2 -205 -20 -16 -11 -46 -23 -67 -26 -55 -7 -125 -27 -157 -44 -24 -12
-31 -12 -57 2 -43 22 -153 20 -173 -2 -20 -25 -35 -65 -30 -85 3 -18 53 -38
87 -37 11 1 57 -2 101 -6 75 -7 84 -6 112 15 22 16 47 24 86 26 31 1 79 11
108 22 29 11 73 26 98 32 25 7 53 16 63 21 10 6 27 7 37 4 10 -3 31 -8 46 -10
92 -13 160 -27 200 -41 24 -8 50 -12 56 -8 7 4 107 8 222 9 116 2 218 5 226 9
8 4 24 21 35 38 11 17 27 35 35 38 45 22 70 31 113 40 41 9 53 7 87 -10 58
-29 95 -26 130 11 l28 32 94 -7 c154 -11 230 -9 268 7 30 13 38 13 55 1 10 -8
31 -14 46 -14 19 0 30 -6 34 -21 12 -37 -4 -63 -55 -94 -75 -44 -173 -151
-196 -215 -13 -36 -31 -63 -56 -83 -21 -17 -40 -39 -44 -50 -3 -10 -25 -28
-49 -38 -23 -10 -50 -30 -59 -44 -9 -14 -22 -25 -29 -25 -7 0 -28 -16 -47 -35
-19 -19 -39 -35 -45 -35 -7 0 -37 -18 -69 -40 -31 -22 -61 -40 -65 -40 -5 0
-25 -13 -46 -30 -20 -16 -61 -41 -91 -56 -29 -14 -58 -32 -65 -40 -6 -8 -18
-14 -26 -14 -8 0 -40 -13 -72 -29 -31 -15 -86 -38 -122 -50 -35 -12 -74 -29
-86 -37 -12 -8 -31 -14 -42 -14 -11 0 -23 -4 -26 -10 -3 -5 -14 -10 -23 -10
-9 0 -66 -15 -127 -34 -122 -38 -188 -54 -267 -65 -29 -5 -74 -14 -100 -22
-39 -11 -51 -11 -72 0 -13 8 -36 11 -51 9 -36 -7 -88 43 -79 76 4 18 -1 29
-22 45 -15 11 -35 21 -45 21 -10 0 -20 4 -23 9 -3 4 -20 11 -39 14 -23 3 -52
24 -95 66 -34 34 -62 66 -62 70 0 10 -157 111 -171 111 -35 0 -198 163 -252
252 -117 191 -231 289 -275 235 -42 -50 -10 -121 70 -155 44 -19 50 -26 82
-95 27 -60 43 -81 79 -106 25 -17 49 -41 53 -54 10 -33 34 -57 59 -57 15 0 26
-9 34 -27 6 -16 39 -56 72 -90 47 -50 66 -63 90 -63 41 0 64 -14 78 -47 6 -15
28 -39 49 -52 20 -13 56 -37 79 -53 23 -15 50 -31 61 -36 30 -11 92 -70 92
-87 0 -13 -10 -16 -47 -15 -27 0 -80 1 -120 1 -39 0 -96 4 -125 8 -29 5 -77 7
-105 4 -34 -4 -74 0 -114 11 -34 10 -72 15 -86 12 -13 -4 -29 -3 -36 1 -17 11
-115 34 -157 37 -19 1 -53 10 -74 20 -21 9 -66 22 -100 28 -34 6 -92 24 -131
40 -38 17 -86 33 -106 37 -20 4 -52 18 -71 29 -20 12 -41 22 -47 22 -6 0 -28
11 -49 25 -21 14 -62 32 -91 41 -30 8 -76 31 -104 50 -27 19 -55 34 -62 34 -8
0 -26 10 -42 23 -15 13 -47 29 -71 37 -24 7 -46 18 -50 24 -13 21 -117 103
-137 110 -11 3 -40 24 -65 47 -25 22 -61 52 -80 67 -19 14 -68 57 -108 94 -39
37 -78 68 -85 68 -7 0 -20 15 -30 32 -10 18 -47 64 -82 102 -36 38 -67 77 -70
87 -3 9 -17 24 -30 33 -14 9 -25 22 -25 29 0 6 -19 30 -41 52 -23 22 -51 60
-63 85 -12 25 -39 67 -59 93 -20 27 -37 54 -37 62 0 7 -7 18 -16 26 -16 13
-24 28 -78 136 -16 32 -42 74 -57 93 -16 19 -29 44 -29 56 0 12 -9 33 -20 47
-11 14 -20 36 -20 50 0 14 -6 32 -13 39 -17 18 -31 51 -68 161 -17 50 -37 103
-44 117 -7 14 -15 49 -19 79 -4 30 -10 60 -14 65 -17 27 -32 85 -32 131 -1 28
-8 68 -16 90 -8 22 -18 78 -21 125 -3 47 -12 97 -20 112 -16 34 -25 182 -14
242 5 30 20 57 44 83 29 29 37 46 37 75 0 20 5 40 11 44 20 12 50 92 44 117
-5 18 5 42 39 96 25 39 55 80 66 91 30 30 55 12 70 -51 14 -58 20 -247 9 -297
-9 -40 7 -234 23 -282 8 -25 8 -35 -1 -38 -12 -4 -15 -54 -4 -66 16 -16 41
-144 36 -186 -5 -42 -3 -47 21 -58 37 -17 60 -15 85 6 17 13 23 32 28 90 4 45
2 72 -4 72 -12 0 -27 105 -24 165 1 22 -5 58 -13 80 -9 26 -17 104 -21 220 -4
99 -8 198 -10 220 -10 114 -9 184 4 199 14 17 86 23 95 7z m3910 -82 c-7 -11
-34 -12 -34 -1 0 14 11 21 26 15 8 -3 11 -9 8 -14z m-894 -219 c0 -5 -2 -10
-4 -10 -3 0 -8 5 -11 10 -3 6 -1 10 4 10 6 0 11 -4 11 -10z m660 -120 c0 -5
-4 -10 -10 -10 -5 0 -10 5 -10 10 0 6 5 10 10 10 6 0 10 -4 10 -10z m-2978
-102 c-9 -9 -12 -7 -12 12 0 19 3 21 12 12 9 -9 9 -15 0 -24z m103 -48 c3 -5
1 -10 -4 -10 -6 0 -11 5 -11 10 0 6 2 10 4 10 3 0 8 -4 11 -10z m4526 -77 c56
-55 67 -89 46 -148 -7 -22 -12 -65 -11 -95 2 -30 3 -71 4 -90 2 -44 -27 -220
-46 -281 -8 -26 -14 -61 -14 -77 0 -17 -9 -54 -20 -82 -11 -28 -20 -60 -20
-72 0 -24 -16 -79 -36 -123 -7 -16 -16 -43 -19 -60 -11 -51 -27 -86 -39 -82
-6 2 -14 35 -17 73 -4 53 0 93 19 174 14 58 31 120 38 138 8 18 14 52 14 75 0
32 8 54 31 85 17 23 35 42 39 42 5 0 14 17 21 39 12 39 1 81 -22 81 -22 0 -65
-31 -89 -64 -29 -41 -51 -45 -79 -15 -22 24 -32 115 -19 164 5 17 11 75 14
129 6 105 10 116 72 194 45 57 69 56 133 -5z m-3653 -44 c-4 -17 53 -31 69
-18 17 15 28 -12 19 -46 -5 -20 -13 -25 -39 -25 -73 0 -103 31 -77 79 11 22
32 29 28 10z m787 -18 c3 -5 1 -12 -5 -16 -5 -3 -10 1 -10 9 0 18 6 21 15 7z
m845 -21 c0 -5 -5 -10 -11 -10 -5 0 -7 5 -4 10 3 6 8 10 11 10 2 0 4 -4 4 -10z
m-1752 -28 c2 -7 -3 -12 -12 -12 -9 0 -16 7 -16 16 0 17 22 14 28 -4z m738
-39 c-10 -10 -19 5 -10 18 6 11 8 11 12 0 2 -7 1 -15 -2 -18z m-1306 -38 c5
-13 32 -46 60 -73 69 -66 65 -97 -13 -103 -34 -3 -39 0 -57 34 -11 20 -20 41
-20 47 0 5 -11 26 -25 46 -36 53 -33 74 10 74 28 0 37 -5 45 -25z m790 4 c0
-5 -7 -9 -15 -9 -15 0 -20 12 -9 23 8 8 24 -1 24 -14z m40 1 c0 -5 -2 -10 -4
-10 -3 0 -8 5 -11 10 -3 6 -1 10 4 10 6 0 11 -4 11 -10z m530 -10 c22 -19 22
-20 3 -20 -22 0 -47 23 -36 33 8 9 7 10 33 -13z m-100 -5 c10 -13 9 -15 -8
-15 -22 0 -36 13 -25 24 10 10 20 7 33 -9z m-340 -25 c0 -5 -2 -10 -4 -10 -3
0 -8 5 -11 10 -3 6 -1 10 4 10 6 0 11 -4 11 -10z m160 -11 c0 -5 -7 -9 -15 -9
-15 0 -20 12 -9 23 8 8 24 -1 24 -14z m-380 2 c0 -18 -17 -20 -36 -6 -18 14
-18 14 9 15 15 0 27 -4 27 -9z m108 -22 c-2 -6 -8 -10 -13 -10 -5 0 -11 4 -13
10 -2 6 4 11 13 11 9 0 15 -5 13 -11z m218 -38 c-10 -16 -36 -13 -36 3 0 17
21 27 34 16 4 -5 5 -13 2 -19z m-366 -38 c0 -13 -3 -13 -15 -3 -8 7 -15 19
-15 27 0 13 3 13 15 3 8 -7 15 -19 15 -27z m734 28 c6 -10 -22 -37 -29 -29 -8
7 5 38 15 38 5 0 11 -4 14 -9z m456 -14 c0 -15 -45 -58 -53 -51 -8 9 34 75 44
68 5 -3 9 -11 9 -17z m-1035 -7 c3 -5 1 -10 -4 -10 -6 0 -11 5 -11 10 0 6 2
10 4 10 3 0 8 -4 11 -10z m388 -12 c-13 -12 -26 -19 -29 -15 -4 4 1 14 12 22
29 22 41 18 17 -7z m-618 -38 c3 -5 -1 -10 -10 -10 -9 0 -13 5 -10 10 3 6 8
10 10 10 2 0 7 -4 10 -10z m1135 -50 c12 -7 12 -12 3 -21 -9 -9 -16 -9 -27 1
-26 21 -5 39 24 20z m-470 -20 c-20 -13 -33 -13 -25 0 3 6 14 10 23 10 15 0
15 -2 2 -10z m-682 -25 c-3 -3 -13 -2 -22 1 -14 5 -15 9 -4 15 13 8 36 -6 26
-16z m1370 8 c-4 -22 -22 -20 -26 1 -2 10 3 16 13 16 10 0 15 -7 13 -17z
m-1078 -17 c0 -3 -4 -8 -10 -11 -5 -3 -10 -1 -10 4 0 6 5 11 10 11 6 0 10 -2
10 -4z m-400 -31 c0 -8 -4 -15 -10 -15 -5 0 -10 7 -10 15 0 8 5 15 10 15 6 0
10 -7 10 -15z m-90 -60 c0 -8 -7 -15 -15 -15 -26 0 -18 20 13 29 1 1 2 -6 2
-14z m231 2 c-1 -12 -15 -9 -19 4 -3 6 1 10 8 8 6 -3 11 -8 11 -12z m3589 -23
c0 -9 -7 -14 -17 -12 -25 5 -28 28 -4 28 12 0 21 -6 21 -16z m-3997 -11 c-7
-2 -19 -2 -25 0 -7 3 -2 5 12 5 14 0 19 -2 13 -5z m702 -3 c3 -5 1 -10 -4 -10
-6 0 -11 5 -11 10 0 6 2 10 4 10 3 0 8 -4 11 -10z m955 -5 c-7 -8 -17 -12 -22
-9 -6 4 -5 10 3 15 22 14 33 10 19 -6z m-660 -29 c-14 -14 -24 0 -16 21 6 15
8 15 16 3 6 -9 5 -19 0 -24z m175 -16 c-3 -5 -10 -10 -16 -10 -5 0 -9 5 -9 10
0 6 7 10 16 10 8 0 12 -4 9 -10z m-992 -20 c9 -11 14 -26 11 -35 -5 -12 -10
-10 -25 9 -32 41 -20 65 14 26z m797 10 c0 -5 -5 -10 -11 -10 -5 0 -7 5 -4 10
3 6 8 10 11 10 2 0 4 -4 4 -10z m-42 -18 c5 -15 -23 -26 -45 -17 -17 6 -17 7
2 21 21 16 37 14 43 -4z m372 -2 c0 -6 -12 -9 -27 -8 -24 3 -28 0 -26 -19 4
-32 -23 -30 -29 2 -3 13 -3 27 0 30 10 10 82 5 82 -5z m-250 -9 c0 -5 9 -13
20 -16 22 -7 28 -25 8 -25 -14 0 -48 30 -48 42 0 4 5 8 10 8 6 0 10 -4 10 -9z
m294 -39 c6 -10 -4 -52 -13 -52 -3 0 -7 14 -8 30 -2 28 10 40 21 22z m-1254
-42 c0 -5 -4 -10 -10 -10 -5 0 -10 5 -10 10 0 6 5 10 10 10 6 0 10 -4 10 -10z
m730 0 c0 -5 -2 -10 -4 -10 -3 0 -8 5 -11 10 -3 6 -1 10 4 10 6 0 11 -4 11
-10z m-333 -19 c10 -16 9 -20 -7 -24 -22 -6 -45 16 -35 33 10 16 29 12 42 -9z
m93 -22 c0 -3 -7 -12 -15 -19 -12 -10 -15 -7 -21 14 -8 35 5 54 23 31 7 -11
13 -22 13 -26z m340 11 c0 -5 -4 -10 -10 -10 -5 0 -10 5 -10 10 0 6 5 10 10
10 6 0 10 -4 10 -10z m-698 -17 c19 -17 24 -43 9 -43 -5 0 -13 9 -16 20 -3 11
-11 20 -16 20 -5 0 -9 5 -9 10 0 15 11 12 32 -7z m411 11 c9 -9 -4 -35 -14
-28 -5 3 -9 12 -9 20 0 14 12 19 23 8z m327 -4 c0 -5 -2 -10 -4 -10 -3 0 -8 5
-11 10 -3 6 -1 10 4 10 6 0 11 -4 11 -10z m160 -10 c0 -23 -8 -25 -32 -6 -20
15 -14 26 14 26 11 0 18 -7 18 -20z m-822 -9 c3 -8 -1 -12 -9 -9 -7 2 -15 10
-17 17 -3 8 1 12 9 9 7 -2 15 -10 17 -17z m1122 9 c0 -13 -11 -13 -30 0 -12 8
-11 10 8 10 12 0 22 -4 22 -10z m-85 -42 c1 -12 6 -31 10 -40 6 -15 2 -18 -24
-18 -34 0 -37 6 -16 34 8 10 12 23 9 27 -6 10 6 33 13 26 2 -3 6 -16 8 -29z
m-625 -8 c0 -5 -2 -10 -4 -10 -3 0 -8 5 -11 10 -3 6 -1 10 4 10 6 0 11 -4 11
-10z m360 -11 c0 -5 -7 -9 -15 -9 -8 0 -15 7 -15 15 0 9 6 12 15 9 8 -4 15
-10 15 -15z m-150 -29 c0 -5 -4 -10 -10 -10 -5 0 -10 5 -10 10 0 6 5 10 10 10
6 0 10 -4 10 -10z m-300 -25 c0 -8 -4 -15 -10 -15 -5 0 -10 7 -10 15 0 8 5 15
10 15 6 0 10 -7 10 -15z m-70 -20 c0 -8 -9 -15 -20 -15 -20 0 -26 11 -13 23
12 13 33 7 33 -8z m563 -41 c-9 -23 -28 -10 -31 22 -4 28 -3 28 16 10 12 -10
18 -24 15 -32z m-78 26 c3 -5 1 -10 -4 -10 -6 0 -11 5 -11 10 0 6 2 10 4 10 3
0 8 -4 11 -10z m-720 -9 c3 -5 1 -12 -5 -16 -5 -3 -10 1 -10 9 0 18 6 21 15 7z
m675 -46 c0 -14 -4 -25 -10 -25 -11 0 -14 33 -3 43 11 11 13 8 13 -18z m-408
-27 c-7 -7 -12 -8 -12 -2 0 6 3 14 7 17 3 4 9 5 12 2 2 -3 -1 -11 -7 -17z
m178 2 c0 -5 -5 -10 -11 -10 -5 0 -7 5 -4 10 3 6 8 10 11 10 2 0 4 -4 4 -10z
m-255 -9 c3 -5 1 -12 -5 -16 -5 -3 -10 1 -10 9 0 18 6 21 15 7z m487 -23 c-6
-6 -16 -7 -22 -3 -9 6 -9 9 1 16 17 10 34 0 21 -13z m-137 2 c3 -5 -3 -10 -14
-10 -11 0 -23 5 -26 10 -3 6 3 10 14 10 11 0 23 -4 26 -10z m-432 -64 l-6 -29
-12 34 c-13 39 -8 57 10 37 8 -8 11 -24 8 -42z m320 14 c-15 -14 -53 -22 -53
-11 0 6 9 11 20 11 11 0 20 5 20 11 0 5 5 7 11 3 6 -3 7 -10 2 -14z m-165 -59
c3 -8 -1 -12 -9 -9 -7 2 -15 10 -17 17 -3 8 1 12 9 9 7 -2 15 -10 17 -17z
m3297 -77 c13 -72 -17 -164 -76 -232 -16 -18 -29 -39 -29 -47 0 -22 -34 -75
-48 -75 -11 0 -13 17 -9 73 2 39 7 82 12 95 6 17 4 22 -11 23 -18 0 -18 1 -1
8 10 4 18 10 17 14 -3 17 66 130 92 153 39 32 45 31 53 -12z m-2295 -1712 c0
-13 -12 -22 -22 -16 -10 6 -1 24 13 24 5 0 9 -4 9 -8z"/>
<path d="M2450 7040 c0 -5 5 -10 11 -10 5 0 7 5 4 10 -3 6 -8 10 -11 10 -2 0
-4 -4 -4 -10z"/>
<path d="M6986 6981 c-8 -13 3 -38 20 -45 8 -3 14 -13 14 -21 0 -10 7 -15 17
-13 22 4 39 68 21 79 -17 12 -65 11 -72 0z"/>
<path d="M943 6450 c-13 -5 -23 -17 -23 -27 0 -10 -9 -29 -20 -43 -11 -14 -20
-32 -20 -41 0 -9 -9 -24 -20 -34 -11 -10 -20 -26 -20 -35 0 -9 -9 -25 -20 -35
-10 -9 -26 -39 -35 -65 -9 -26 -27 -62 -40 -80 -14 -19 -25 -41 -25 -51 0 -9
-9 -28 -21 -42 -19 -25 -23 -26 -92 -21 -40 4 -76 6 -82 6 -56 -4 -92 -15
-134 -44 -56 -36 -68 -65 -58 -140 9 -65 81 -120 145 -110 24 3 36 12 43 29
12 33 -2 50 -42 51 -48 1 -63 22 -60 84 1 24 6 27 71 39 51 9 73 9 83 1 10 -8
16 -9 25 0 6 6 17 8 25 5 13 -5 13 -14 1 -74 -8 -37 -18 -77 -23 -88 -22 -51
-31 -77 -31 -91 0 -15 -26 -78 -61 -147 -14 -27 -19 -57 -18 -95 1 -39 -7 -80
-25 -131 -14 -40 -26 -89 -26 -107 0 -18 -4 -35 -9 -38 -5 -4 -10 -39 -10 -79
0 -127 -13 -251 -27 -280 -12 -22 -13 -46 -5 -125 5 -53 7 -109 4 -125 -3 -15
-2 -106 2 -202 6 -158 9 -176 26 -186 30 -16 55 5 63 50 8 50 24 67 74 75 48
7 82 -8 122 -56 l28 -33 39 20 c29 15 42 30 53 62 23 69 12 74 -157 75 -77 0
-145 -2 -151 -6 -5 -3 -15 14 -21 40 -9 35 -9 51 1 71 13 25 16 26 108 26 52
0 105 -3 116 -7 46 -14 188 -14 216 0 28 15 37 47 17 59 -6 4 -54 9 -107 11
-199 8 -331 19 -342 30 -14 14 -15 161 -1 196 10 25 52 45 72 32 6 -3 21 -31
35 -62 14 -31 30 -60 37 -64 18 -11 65 -10 72 2 4 6 15 8 26 5 38 -12 122 60
145 125 5 14 9 54 9 90 l0 65 45 5 c33 4 46 10 48 23 6 32 -17 45 -90 52 -40
4 -97 16 -128 26 -30 9 -80 20 -110 23 -123 11 -130 16 -122 94 5 49 27 67 64
53 51 -19 137 -41 208 -52 41 -6 96 -18 122 -26 67 -21 110 8 80 54 -12 18
-124 50 -237 68 -174 26 -172 26 -186 52 -11 21 -10 36 9 106 13 45 27 102 32
127 6 25 18 53 28 63 18 17 19 17 36 -2 15 -16 16 -25 7 -58 -16 -59 8 -131
59 -177 22 -20 43 -36 48 -37 4 0 23 -2 42 -4 46 -4 160 32 167 54 31 96 53
136 89 160 42 29 54 60 31 80 -11 9 -21 9 -43 0 -47 -19 -63 -20 -88 -4 -17
11 -35 14 -65 9 -69 -11 -78 -66 -15 -103 37 -22 53 -63 34 -86 -21 -25 -89
-39 -119 -24 -64 32 -75 65 -46 144 8 22 14 47 15 56 0 17 -32 59 -46 59 -5 0
-24 13 -43 29 l-34 28 19 61 c15 48 25 64 45 71 18 6 31 4 45 -6 25 -19 159
-83 173 -83 6 0 11 -4 11 -10 0 -5 18 -14 40 -20 21 -6 42 -15 45 -20 10 -16
79 -46 97 -42 20 4 31 37 26 73 -2 16 -12 26 -28 29 -33 8 -91 33 -161 70 -31
17 -64 30 -73 30 -26 0 -122 51 -135 72 -10 17 -7 28 25 75 20 31 59 100 86
153 38 76 54 99 73 104 52 13 95 -35 75 -84 -6 -15 -13 -40 -14 -54 -2 -14
-19 -52 -39 -84 -30 -48 -34 -63 -28 -92 8 -43 36 -49 106 -23 65 24 76 43 47
82 -26 36 -28 72 -6 107 30 45 50 48 100 17 25 -15 60 -40 78 -55 42 -35 89
-27 94 14 3 21 -5 31 -43 54 -25 16 -58 38 -73 50 -15 11 -48 28 -73 37 -25
10 -58 31 -74 47 -16 17 -36 30 -45 30 -8 0 -26 7 -39 16 -19 14 -22 23 -18
51 10 60 -7 74 -60 53z m-314 -1469 c70 -11 104 -34 139 -92 22 -38 23 -44 12
-87 -15 -55 -17 -57 -53 -66 -24 -6 -34 1 -79 46 -32 31 -71 58 -98 68 l-45
16 0 56 c0 63 17 93 45 78 9 -5 45 -14 79 -19z"/>
<path d="M7438 6129 c-31 -18 -22 -68 27 -147 43 -69 53 -108 39 -146 -9 -25
-22 -19 -29 13 -3 16 -17 39 -31 51 -13 13 -24 29 -24 35 0 7 -9 24 -21 39
-58 74 -234 -11 -263 -126 -7 -29 10 -114 27 -136 5 -6 7 -30 3 -52 -8 -50 6
-80 37 -76 26 3 77 26 77 36 0 4 30 22 67 40 76 37 102 34 136 -12 17 -23 19
-34 11 -65 -8 -32 -16 -40 -56 -57 l-47 -19 -50 46 c-53 50 -77 53 -87 11 -8
-31 3 -74 19 -74 6 0 23 -14 37 -30 22 -27 34 -32 86 -36 l62 -6 61 59 c52 49
63 65 70 105 8 44 6 52 -25 100 -38 59 -40 66 -18 75 25 9 62 -35 79 -96 10
-31 21 -65 25 -76 9 -21 30 -108 30 -122 0 -5 -28 -15 -62 -23 -35 -7 -72 -19
-83 -26 -11 -7 -46 -17 -77 -24 -67 -13 -155 -43 -167 -56 -5 -5 -11 -21 -15
-36 -5 -22 -1 -31 20 -44 24 -16 27 -16 54 -1 15 9 36 17 45 17 9 0 37 9 63
19 173 70 227 84 258 63 11 -6 32 -71 54 -162 5 -19 18 -67 30 -107 22 -80 25
-115 10 -144 -15 -26 -30 -24 -30 5 0 13 -12 41 -26 62 -23 34 -26 45 -21 98
5 56 4 60 -26 91 -18 18 -48 36 -66 40 -85 18 -206 -7 -234 -48 -8 -12 -26
-35 -41 -52 -36 -41 -43 -86 -20 -124 32 -55 82 -32 99 45 9 42 15 51 45 66
44 21 103 32 130 23 33 -10 25 -50 -15 -81 -40 -30 -44 -51 -14 -83 15 -16 28
-21 44 -17 27 7 58 -18 53 -43 -4 -18 -81 -38 -174 -44 -86 -6 -124 -28 -124
-73 0 -43 23 -49 118 -30 48 10 119 22 157 27 39 5 88 11 111 15 37 5 41 4 53
-23 7 -15 17 -66 22 -113 5 -47 14 -116 20 -155 20 -130 12 -215 -21 -215 -29
0 -38 26 -39 115 -4 171 -14 215 -51 215 -27 0 -50 -27 -50 -60 0 -16 -7 -45
-17 -64 -13 -29 -22 -35 -52 -38 -36 -3 -61 5 -93 31 -32 25 -21 56 37 109 30
28 55 58 55 66 0 28 -44 41 -89 27 -87 -26 -133 -139 -97 -236 26 -67 53 -80
166 -80 94 0 95 0 104 -28 8 -22 6 -31 -7 -45 -15 -14 -37 -17 -131 -17 -123
-1 -146 -9 -146 -51 0 -52 32 -57 296 -39 l91 7 36 -42 c27 -32 40 -40 55 -36
33 11 42 30 47 107 3 41 8 104 11 140 4 45 2 74 -6 90 -8 13 -14 66 -15 124
-1 56 -5 107 -9 113 -3 6 -9 48 -11 93 -5 88 9 129 54 156 33 21 122 145 119
167 -2 11 -14 26 -27 32 -20 10 -29 9 -48 -3 -21 -14 -64 -74 -99 -138 -6 -11
-18 -21 -26 -23 -16 -3 -27 29 -34 103 -4 42 -19 102 -36 145 -6 14 -14 50
-18 80 -8 56 -79 290 -104 345 -8 17 -19 49 -25 72 -7 24 -33 78 -59 120 -27
43 -56 102 -65 130 -22 66 -73 143 -95 143 -9 0 -25 -5 -34 -11z m-68 -251
c52 -38 38 -91 -35 -128 -51 -26 -80 -25 -99 2 -26 37 -20 78 16 115 38 39 75
43 118 11z"/>
<path d="M7711 3442 c-25 -2 -56 -11 -70 -21 -14 -10 -57 -26 -96 -36 -38 -10
-73 -24 -77 -29 -4 -6 -19 -12 -34 -13 -33 -2 -64 -30 -64 -56 0 -22 95 -144
119 -152 9 -3 27 -22 40 -43 13 -20 40 -56 60 -79 40 -49 46 -49 146 -2 33 16
80 35 105 43 61 19 159 61 171 73 16 16 -7 59 -40 79 -17 10 -32 23 -33 30 -3
10 -59 75 -160 184 -19 21 -30 25 -67 22z m89 -233 c0 -5 -7 -9 -15 -9 -15 0
-20 12 -9 23 8 8 24 -1 24 -14z"/>
<path d="M632 3363 c-6 -15 -29 -48 -51 -72 -23 -25 -41 -52 -41 -60 -1 -18
-70 -95 -94 -104 -23 -9 -29 -29 -17 -60 7 -19 18 -27 34 -27 13 0 27 -4 33
-8 5 -5 36 -17 69 -26 73 -21 126 -41 182 -68 27 -13 49 -17 64 -13 24 8 89
74 89 91 0 6 15 24 33 41 71 67 137 159 137 192 0 21 -16 30 -75 42 -55 10
-130 36 -191 64 -28 13 -76 26 -106 30 -54 7 -56 6 -66 -22z m203 -144 c-8
-12 -35 -12 -35 0 0 11 22 20 33 14 4 -2 5 -9 2 -14z m-40 -19 c3 -5 -3 -10
-15 -10 -12 0 -18 5 -15 10 3 6 10 10 15 10 5 0 12 -4 15 -10z m-9 -65 c19
-14 19 -14 -1 -14 -11 0 -29 6 -39 14 -20 15 -20 15 0 15 11 0 29 -7 40 -15z
m-133 -70 c-7 -19 -33 -20 -33 -1 0 15 20 26 32 19 4 -2 5 -10 1 -18z m207 -4
c0 -14 -18 -23 -30 -16 -6 4 -8 11 -5 16 8 12 35 12 35 0z"/>
<path d="M7250 3010 c-13 -9 -12 -12 4 -25 25 -19 31 -19 46 0 23 28 -16 48
-50 25z"/>
<path d="M7114 2363 c-9 -15 -36 -48 -59 -73 -23 -25 -50 -60 -59 -78 -20 -40
-92 -133 -166 -217 -30 -34 -82 -92 -115 -129 -33 -38 -70 -78 -83 -90 -12
-11 -45 -42 -72 -68 -27 -27 -53 -48 -57 -48 -4 0 -33 -24 -64 -53 -73 -68
-149 -127 -164 -127 -6 0 -22 -11 -35 -24 -12 -14 -35 -28 -50 -31 -15 -3 -46
-22 -68 -41 -22 -18 -45 -34 -50 -34 -6 0 -32 -16 -57 -36 -26 -20 -67 -44
-90 -54 -23 -10 -64 -34 -90 -54 -25 -20 -59 -39 -73 -43 -15 -3 -46 -16 -70
-29 -23 -12 -59 -28 -80 -35 -20 -6 -64 -25 -97 -42 -33 -16 -78 -35 -100 -41
-29 -9 -42 -19 -50 -40 -8 -25 -5 -31 33 -66 31 -29 42 -47 42 -68 0 -16 7
-35 15 -42 8 -7 15 -18 15 -25 0 -19 68 -75 90 -75 16 0 20 -7 20 -34 0 -18
-7 -39 -15 -46 -28 -23 -10 -100 24 -100 13 0 54 58 81 113 14 28 30 53 37 55
7 2 19 -14 28 -34 18 -43 30 -54 61 -54 23 0 34 17 34 54 0 22 -51 136 -74
165 -10 13 -53 127 -63 169 -7 29 17 55 66 72 77 25 108 -34 44 -86 -22 -17
-25 -26 -19 -55 8 -44 75 -114 117 -123 87 -17 136 -3 203 58 46 42 54 44 62
12 3 -14 14 -32 24 -41 18 -16 20 -16 44 2 44 31 41 47 -21 141 -33 48 -62 96
-66 106 -4 9 -23 42 -43 71 -43 65 -44 108 -3 113 32 4 85 -60 178 -213 72
-119 90 -135 127 -110 33 21 30 50 -9 99 -18 23 -45 61 -59 86 -15 25 -40 59
-55 75 -37 39 -73 101 -73 125 0 12 17 29 46 46 56 33 66 29 111 -46 30 -49
31 -54 18 -81 -8 -15 -12 -34 -9 -42 7 -20 56 -40 101 -41 30 -1 40 4 52 26
12 21 13 31 3 50 -15 29 -73 113 -107 155 -32 40 -32 86 1 91 16 2 41 -19 101
-85 43 -48 98 -114 121 -145 48 -65 86 -83 109 -53 19 27 16 53 -10 78 -12 12
-48 56 -79 97 -31 41 -75 93 -97 115 -55 53 -53 73 14 139 61 61 76 63 115 11
40 -53 32 -68 -43 -80 -45 -7 -55 -26 -34 -59 16 -23 51 -32 167 -41 14 -1 44
-5 68 -9 92 -17 153 -14 173 8 20 21 23 34 11 52 -10 16 -147 37 -193 30 -47
-7 -53 1 -50 69 1 47 -3 57 -34 95 -19 23 -35 50 -35 59 0 23 41 61 66 61 10
0 53 -30 94 -66 41 -37 104 -92 139 -123 66 -58 105 -71 124 -40 17 27 -1 66
-40 90 -37 23 -73 53 -137 115 -18 17 -42 35 -54 38 -28 9 -39 52 -22 80 8 12
22 38 32 58 10 20 22 39 28 43 5 3 30 36 54 73 79 119 118 151 146 116 19 -22
-3 -62 -94 -170 -32 -39 -40 -91 -15 -107 23 -14 66 -1 74 23 4 11 17 27 30
36 21 14 26 14 53 0 17 -9 39 -27 50 -41 17 -21 18 -31 10 -65 -9 -35 -15 -41
-49 -50 -28 -8 -43 -7 -58 2 -28 17 -71 -4 -71 -35 0 -35 62 -77 116 -77 73 0
173 123 160 198 -7 48 -53 102 -109 129 -52 25 -54 29 -32 60 13 18 20 21 40
13 25 -10 110 -65 155 -100 14 -11 30 -20 37 -20 19 0 45 31 39 47 -3 8 -6 18
-6 23 0 9 -115 90 -128 90 -5 0 -19 11 -32 25 -13 14 -28 25 -34 25 -18 0
-110 69 -118 88 -3 9 -4 34 -1 55 5 34 4 37 -20 37 -16 0 -31 -10 -43 -27z
m-1114 -1215 c11 -12 20 -26 20 -30 0 -5 11 -26 25 -46 37 -55 30 -123 -18
-163 -31 -26 -126 -27 -128 -1 -2 22 -2 20 15 68 13 36 13 48 -1 104 -15 60
-15 64 2 76 28 20 61 17 85 -8z m-372 -229 c22 -42 32 -74 32 -105 0 -48 -5
-51 -57 -32 -25 9 -40 25 -63 71 -36 71 -38 100 -7 115 47 23 61 15 95 -49z"/>
<path d="M1570 2322 c-19 -9 -36 -20 -38 -24 -2 -4 -7 -8 -11 -8 -4 0 -27 -18
-51 -40 -29 -27 -44 -49 -46 -72 -4 -35 -72 -103 -145 -145 -20 -12 -66 -45
-100 -72 -35 -28 -67 -51 -72 -51 -16 0 -3 -65 14 -68 17 -3 108 53 122 76 4
6 15 12 23 12 20 0 142 81 173 115 24 26 24 26 44 7 17 -17 18 -25 8 -53 -16
-48 -13 -84 9 -104 25 -22 25 -36 1 -66 l-18 -22 -36 22 c-20 12 -41 20 -47
16 -21 -13 -37 -62 -38 -110 0 -69 10 -78 73 -70 48 6 53 4 84 -25 36 -35 37
-30 -27 -103 -42 -49 -42 -90 1 -95 20 -3 33 4 50 24 23 29 60 66 189 190 l77
75 31 -16 c16 -8 30 -23 30 -33 0 -9 -27 -46 -60 -82 -33 -36 -67 -77 -76 -92
-8 -16 -18 -28 -23 -28 -4 0 -31 -29 -60 -65 -45 -55 -51 -67 -41 -85 7 -13
21 -20 40 -20 23 0 37 11 74 59 25 33 49 61 53 63 5 1 32 32 62 68 84 99 89
104 114 93 12 -6 41 -26 63 -44 23 -19 56 -42 72 -51 34 -18 52 -62 33 -81 -8
-8 -17 -5 -33 10 -49 44 -96 53 -171 32 -27 -7 -44 -21 -62 -49 -13 -21 -29
-41 -35 -45 -5 -3 -10 -33 -10 -66 l0 -60 69 -67 c37 -37 74 -83 81 -102 18
-46 29 -60 50 -60 26 0 50 43 50 88 0 23 6 45 15 52 18 15 20 70 3 92 -7 9
-25 19 -41 22 -22 5 -33 1 -51 -19 -31 -33 -40 -32 -71 10 -25 31 -26 37 -15
70 16 50 44 66 99 55 24 -4 46 -12 50 -17 15 -22 77 -57 95 -54 11 1 28 14 39
27 34 44 54 48 88 20 17 -14 38 -26 48 -26 25 0 113 -65 128 -95 12 -22 11
-27 -7 -45 -23 -23 -54 -25 -90 -5 -22 12 -27 11 -42 -2 -21 -19 -24 -52 -5
-59 8 -3 24 -19 36 -35 33 -45 22 -101 -25 -129 l-35 -20 -45 26 c-29 17 -44
33 -44 46 0 42 -23 98 -43 104 -45 14 -66 -65 -39 -146 17 -53 21 -56 90 -92
60 -31 77 -35 102 -28 72 21 146 118 135 176 -5 28 0 38 37 76 24 24 48 52 54
63 11 20 13 19 85 -11 67 -27 74 -33 77 -60 4 -45 -31 -86 -71 -82 -25 2 -32
9 -39 35 -11 44 -37 57 -68 33 -19 -15 -24 -26 -22 -57 2 -21 7 -42 12 -47 6
-6 10 -21 10 -34 0 -13 5 -33 11 -44 6 -11 22 -61 36 -111 13 -49 30 -98 36
-108 13 -21 57 -25 75 -7 14 14 16 78 3 78 -5 0 -12 17 -16 37 -4 21 -12 49
-19 63 -17 33 -2 95 20 86 21 -8 76 35 109 85 23 35 30 40 53 35 15 -4 37 -18
50 -32 25 -29 22 -67 -9 -97 -10 -9 -16 -24 -13 -32 4 -8 1 -15 -4 -15 -6 0
-18 -25 -27 -57 -9 -31 -28 -78 -41 -104 -44 -84 -18 -163 37 -113 29 26 96
156 104 201 3 22 21 68 38 103 26 53 38 65 64 72 18 5 37 17 43 28 9 17 6 25
-16 45 -15 14 -38 25 -52 25 -14 0 -33 6 -41 13 -24 20 -129 57 -161 57 -15 0
-30 7 -33 14 -3 8 -34 29 -69 46 -34 17 -67 35 -73 39 -5 5 -27 14 -47 20 -21
7 -46 23 -56 35 -10 13 -31 30 -48 39 -17 9 -37 23 -44 32 -8 9 -34 26 -58 37
-24 12 -51 32 -59 45 -15 23 -15 27 1 58 23 41 17 80 -23 161 -16 33 -32 68
-35 79 -3 12 -29 43 -56 70 l-51 50 -67 -2 -67 -2 -52 -55 -51 -55 -67 64
c-70 68 -84 75 -105 50 -10 -12 -10 -21 -1 -41 17 -38 14 -57 -15 -84 -14 -14
-39 -38 -55 -54 -23 -22 -35 -27 -56 -21 -35 8 -52 32 -53 71 0 27 10 39 75
90 67 53 75 62 81 101 8 52 -12 88 -60 108 -18 8 -49 32 -69 54 -45 50 -49 90
-11 128 21 21 32 24 61 20 19 -4 45 -12 57 -20 29 -20 65 -126 75 -224 10 -94
15 -106 44 -97 30 9 29 5 33 89 3 54 0 84 -11 105 -8 16 -14 33 -13 38 4 13
-55 135 -72 150 -50 41 -124 56 -170 34z m48 -334 c26 -26 3 -77 -35 -78 -16
0 -25 33 -17 64 7 28 32 34 52 14z m513 -219 c18 -7 33 -27 48 -62 12 -29 28
-65 36 -82 8 -16 17 -54 21 -82 6 -50 5 -53 -15 -53 -12 0 -24 7 -28 15 -3 9
-19 23 -35 31 -16 8 -60 45 -98 82 -58 56 -70 73 -70 100 0 26 7 36 33 52 32
21 54 20 108 -1z"/>
<path d="M7985 1600 c-4 -7 -3 -16 3 -22 14 -14 45 -2 40 15 -6 16 -34 21 -43
7z"/>
<path d="M4815 1111 c-3 -6 -16 -11 -29 -11 -23 0 -65 -38 -85 -77 -20 -40
-14 -101 14 -125 31 -27 32 -46 3 -52 -62 -13 -411 -29 -598 -28 -73 1 -251
20 -297 33 -23 6 -53 9 -66 5 -17 -4 -37 3 -68 23 -67 44 -99 46 -148 11 -40
-29 -41 -32 -41 -86 0 -46 4 -59 23 -75 12 -10 32 -18 45 -19 23 0 23 2 26 70
1 25 6 36 19 38 32 6 50 -18 44 -61 -8 -55 -31 -77 -83 -77 -47 0 -94 -15
-106 -33 -17 -26 -7 -77 22 -120 17 -25 30 -49 30 -54 0 -5 21 -20 48 -33 35
-18 64 -24 112 -25 63 0 65 -1 68 -26 2 -15 12 -35 23 -45 16 -15 23 -15 43
-5 24 13 30 52 40 261 2 25 6 67 11 93 8 53 28 69 75 60 14 -3 49 -5 79 -6 63
-3 78 -21 67 -81 -9 -47 -42 -57 -84 -26 -42 31 -76 24 -80 -17 -2 -25 4 -39
29 -65 17 -18 46 -55 64 -83 18 -27 42 -59 54 -69 12 -11 31 -36 42 -56 39
-69 92 -72 102 -6 3 25 -4 39 -42 81 -25 27 -56 65 -69 82 l-22 33 35 22 c35
24 55 61 55 107 1 44 35 59 153 67 80 5 111 4 122 -6 24 -20 18 -40 -12 -40
-78 -1 -150 -72 -167 -164 -16 -85 92 -183 189 -169 35 4 46 2 64 -16 13 -13
32 -21 44 -19 31 4 37 59 20 166 -18 117 -26 234 -16 249 4 6 44 14 88 17 44
3 95 9 113 12 25 5 32 3 32 -9 0 -21 -9 -25 -60 -32 -52 -6 -65 -16 -91 -68
-18 -34 -19 -43 -8 -71 7 -17 22 -42 33 -55 20 -22 26 -23 102 -17 88 6 104
-1 117 -52 4 -18 -1 -27 -26 -43 -41 -25 -42 -24 -74 11 -31 36 -69 39 -106
10 -22 -17 -25 -25 -17 -45 15 -41 52 -74 88 -81 26 -5 37 -14 48 -39 19 -46
61 -78 85 -64 23 12 25 48 4 75 -22 29 -18 48 15 62 48 22 75 69 73 126 -3 58
-21 90 -66 111 -38 18 -109 23 -148 11 -20 -6 -28 -4 -33 10 -11 28 11 41 77
49 85 9 101 22 98 85 -1 48 0 50 34 64 23 10 35 22 35 34 0 33 -25 45 -82 39
-67 -6 -81 2 -102 54 -17 41 -16 42 5 65 12 13 30 24 40 24 9 0 27 8 40 19 22
18 22 19 6 45 -10 14 -21 26 -26 26 -5 0 -16 3 -24 6 -8 3 -18 1 -22 -5z
m-1029 -393 c-4 -24 -11 -61 -16 -83 -5 -22 -10 -54 -10 -70 0 -38 -23 -53
-92 -60 -57 -6 -72 1 -102 47 -18 27 -18 28 6 37 12 6 42 15 64 21 31 7 50 22
78 57 20 25 36 54 36 63 0 20 9 30 27 30 11 0 13 -10 9 -42z m709 -159 c16
-31 11 -82 -11 -100 -9 -8 -29 -8 -61 -3 -84 16 -98 89 -27 138 34 23 38 24
61 9 13 -9 30 -28 38 -44z"/>
<path d="M5047 889 c7 -25 30 -36 45 -21 14 14 -7 42 -32 42 -13 0 -17 -5 -13
-21z"/>
<path d="M2990 563 c-51 -57 -63 -100 -35 -123 36 -30 120 58 113 117 -4 40
-45 44 -78 6z"/>
<path d="M5166 484 c-22 -22 -31 -63 -28 -132 3 -45 26 -51 62 -16 26 25 29
36 30 86 0 47 -4 59 -19 68 -25 13 -27 13 -45 -6z"/>
</g>
</svg>
